<svg width="160" height="25" viewBox="0 0 160 25" fill="none" xmlns="http://www.w3.org/2000/svg">
<path d="M0.659012 5.4768H6.74805V23.9335H12.3461V5.4768H18.4359V1.00147H0.659012V5.4768ZM35.5508 23.9335H41.1487V1.00147H35.5508V9.9848H26.8428V1.00147H21.2448V23.9335H26.8428V14.4928H35.5508V23.9335ZM67.8113 12.4021C67.8113 5.50947 62.6061 0.674805 56.0587 0.674805C49.5441 0.674805 44.2407 5.50947 44.2407 12.4021C44.2407 19.2948 49.5441 24.1621 56.0587 24.1621C62.5734 24.1621 67.8113 19.2948 67.8113 12.4021ZM49.9697 12.4021C49.9697 8.3188 52.3267 5.73814 56.0587 5.73814C59.7253 5.73814 62.1151 8.3188 62.1151 12.4021C62.1151 16.4201 59.7253 19.0661 56.0587 19.0661C52.3267 19.0661 49.9697 16.4201 49.9697 12.4021ZM70.8263 14.6888C70.8263 21.0261 74.9839 24.1621 80.32 24.1621C85.6234 24.1621 90.0756 21.0261 90.0756 14.6888V1.00147H84.4776V14.7215C84.4776 17.4328 83.0699 19.0008 80.4182 19.0008C77.7665 19.0008 76.4243 17.4328 76.4243 14.7215V1.00147H70.8263V14.6888ZM104.745 0.740138C97.8702 0.740138 93.0579 5.5748 93.0579 12.4348C93.0579 19.2948 97.903 24.0968 104.778 24.0968C110.834 24.0968 114.664 20.1441 115.843 16.1915V10.9975H103.665V15.1135H110.769C109.917 17.6941 107.986 19.1641 105.203 19.1641C101.177 19.1641 98.7541 16.6815 98.7541 12.4348C98.7541 8.44947 101.144 5.90147 104.745 5.90147C106.84 5.90147 108.411 6.71814 109.263 8.25347H115.45C114.239 3.54947 110.245 0.740138 104.745 0.740138ZM133.249 23.9335H138.847V1.00147H133.249V9.9848H124.541V1.00147H118.943V23.9335H124.541V14.4928H133.249V23.9335ZM141.644 5.4768H147.733V23.9335H153.331V5.4768H159.42V1.00147H141.644V5.4768Z" fill="#0029FF"/>
</svg>
