<svg width="73" height="23" viewBox="0 0 73 23" fill="none" xmlns="http://www.w3.org/2000/svg">
<path d="M8.09804 0.164503H0.994141V22.9332H8.09804C15.5948 22.9332 20.2107 18.6538 20.2107 11.5978C20.2107 4.54184 15.5948 0.164503 8.09804 0.164503ZM3.97319 20.4832V2.58184H8.09804C14.0561 2.58184 17.1661 6.0445 17.1661 11.5978C17.1661 17.1512 14.0561 20.4832 8.09804 20.4832H3.97319ZM36.4164 0.131836H24.1401V22.9332H36.4164V20.4832H27.1191V12.6432H35.4343V10.1932H27.1191V2.58184H36.4164V0.131836ZM53.2004 0.131836H40.9241V22.9332H53.2004V20.4832H43.9031V12.6432H52.2183V10.1932H43.9031V2.58184H53.2004V0.131836ZM60.6872 10.9772V2.6145H65.0739C68.4785 2.6145 69.919 4.1825 69.919 6.8285C69.919 9.3765 68.4785 10.9772 65.0739 10.9772H60.6872ZM72.9635 6.8285C72.9635 3.1045 70.4427 0.164503 65.0739 0.164503H57.7081V22.9332H60.6872V13.4272H65.0739C70.7374 13.4272 72.9635 10.2912 72.9635 6.8285Z" fill="black"/>
</svg>
